# xmcd
#
# Track frame offsets: 
#        150
#        23658
#        40819
#        61423
#        82110
#        89358
#        106296
#        129932
#        152574
#
# Disc length: 2260 seconds
#
# Revision: 0
# Processed by: cddbd v1.4PL0 Copyright (c) Steve Scherf et al.
# Submitted via: ExactAudioCopy v0.90b4
#
DISCID=6608d209
DTITLE=Virgil Shaw - Quad Cites
DYEAR=1900
DGENRE=Country
TTITLE0=Water Color
TTITLE1=Gypsum
TTITLE2=Twisted Layer
TTITLE3=Carving Soap
TTITLE4=Diamond Trade
TTITLE5=Back To Eureka
TTITLE6=Volvo
TTITLE7=Surf Board Maker
TTITLE8=For Your Precious Love
EXTD=
EXTT0=
EXTT1=
EXTT2=
EXTT3=
EXTT4=
EXTT5=
EXTT6=
EXTT7=
EXTT8=
PLAYORDER=
